{"title":"T in the Park 2016 - Chase &amp; Status","uid":15400919,"size":1149211070,"categoryP":"video","categoryS":"tv_shows","magnet":"?xt=urn:btih:51fb61b9e7959b74d89b199cc4bfcb5fb0f24bb8&amp;dn=T+in+the+Park+2016+-+Chase+%26amp%3B+Status&amp;tr=udp%3A%2F%2Ftracker.leechers-paradise.org%3A6969&amp;tr=udp%3A%2F%2Fzer0day.ch%3A1337&amp;tr=udp%3A%2F%2Fopen.demonii.com%3A1337&amp;tr=udp%3A%2F%2Ftracker.coppersurfer.tk%3A6969&amp;tr=udp%3A%2F%2Fexodus.desync.com%3A6969","seeders":0,"leechers":1,"uploader":"RoaElson","files":2,"time":1469455093,"description":"T in the Park 2016: Chase &amp; Status\r\n\r\nBringing the big bass to the Sunday Main Stage.\r\n\r\nFirst shown: 8 July 2016\r\nDuration: 63 minutes\r\n\r\nMedia info:-\r\n\r\nGeneral\r\nFormat : MPEG-4\r\nFormat profile : Base Media\r\nCodec ID : isom (isom/iso2/avc1/mp41)\r\nFile size : 1.07 GiB\r\nDuration : 1h 3mn\r\nOverall bit rate mode : Variable\r\nOverall bit rate : 2 396 Kbps\r\n\r\nVideo\r\nID : 1\r\nFormat : AVC\r\nFormat/Info : Advanced Video Codec\r\nFormat profile :   \r\nFormat settings, CABAC : Yes\r\nFormat settings, ReFrames : 2 frames\r\nCodec ID : avc1\r\nCodec ID/Info : Advanced Video Coding\r\nDuration : 1h 3mn\r\nBit rate mode : Variable\r\nBit rate : 2 297 Kbps\r\nMaximum bit rate : 3 500 Kbps\r\nWidth : 1 280 pixels\r\nHeight : 720 pixels\r\nDisplay aspect ratio : 16:9\r\nFrame rate mode : Constant\r\nFrame rate : 25.000 fps\r\nColor space : YUV\r\nChroma subsampling : 4:2:0\r\nBit depth : 8 bits\r\nScan type : Progressive\r\nBits/(Pixel*Frame) : 0.100\r\nStream size : 1.03 GiB (96%)\r\n\r\nAudio\r\nID : 2\r\nFormat : AAC\r\nFormat/Info : Advanced Audio Codec\r\nFormat profile : LC\r\nCodec ID : 40\r\nDuration : 1h 3mn\r\nBit rate mode : Constant\r\nBit rate : 93.5 Kbps\r\nChannel(s) : 2 channels\r\nChannel positions : Front: L R\r\nSampling rate : 48.0 KHz\r\nFrame rate : 46.875 fps (1024 spf)\r\nCompression mode : Lossy\r\nStream size : 42.7 MiB (4%)","torrent":{"xt":"urn:btih:51fb61b9e7959b74d89b199cc4bfcb5fb0f24bb8","amp;dn":"T+in+the+Park+2016+-+Chase+%26amp%3B+Status","amp;tr":["udp%3A%2F%2Ftracker.leechers-paradise.org%3A6969","udp%3A%2F%2Fzer0day.ch%3A1337","udp%3A%2F%2Fopen.demonii.com%3A1337","udp%3A%2F%2Ftracker.coppersurfer.tk%3A6969","udp%3A%2F%2Fexodus.desync.com%3A6969"],"infoHash":"51fb61b9e7959b74d89b199cc4bfcb5fb0f24bb8","infoHashBuffer":{"type":"Buffer","data":[81,251,97,185,231,149,155,116,216,155,25,156,196,191,203,95,176,242,75,184]},"announce":[],"urlList":[]}}